<?xml version="1.0" encoding="UTF-8" standalone="no"?>
<svg xmlns:xlink="http://www.w3.org/1999/xlink" height="112.55px" width="112.55px" xmlns="http://www.w3.org/2000/svg">
  <g transform="matrix(1.0, 0.0, 0.0, 1.0, -671.65, -498.25)">
    <path d="M727.95 499.5 Q737.65 499.5 746.8 502.85 755.9 506.2 763.35 512.5 L759.4 516.45 760.25 517.2 Q762.8 519.35 765.2 522.1 L765.9 522.95 769.85 519.0 Q776.15 526.45 779.5 535.55 782.85 544.7 782.85 554.45 782.85 564.2 779.5 573.3 776.15 582.4 769.85 589.85 L765.9 585.9 765.2 586.75 760.25 591.7 759.4 592.4 763.35 596.35 Q755.9 602.65 746.8 606.0 737.7 609.35 727.95 609.35 718.2 609.35 709.05 606.0 699.95 602.65 692.5 596.35 L696.45 592.4 695.6 591.7 Q692.85 589.3 690.7 586.75 L689.95 585.9 686.0 589.85 Q679.7 582.4 676.35 573.3 673.0 564.15 673.0 554.45 673.0 544.7 676.35 535.55 679.7 526.45 686.0 519.0 L689.95 522.95 690.7 522.1 Q692.85 519.55 695.6 517.15 L696.45 516.45 692.5 512.5 Q699.95 506.2 709.05 502.85 718.2 499.5 727.95 499.5" fill="#ffffff" fill-rule="evenodd" stroke="none"/>
    <path d="M690.75 512.3 Q698.45 505.5 708.05 501.9 717.65 498.25 727.95 498.25 738.2 498.25 747.8 501.9 757.4 505.5 765.1 512.3 L765.95 513.0 762.0 516.95 765.5 520.45 769.45 516.5 770.15 517.35 Q776.95 525.05 780.55 534.65 784.2 544.25 784.2 554.5 784.2 564.8 780.55 574.4 776.95 584.0 770.15 591.7 L769.45 592.5 765.5 588.6 762.0 592.1 765.95 596.0 765.1 596.75 Q757.4 603.55 747.8 607.15 738.2 610.8 727.95 610.8 717.65 610.8 708.05 607.15 698.45 603.55 690.75 596.75 L689.9 596.0 693.85 592.1 690.35 588.6 686.4 592.5 685.7 591.7 Q678.9 584.0 675.3 574.4 671.65 564.8 671.65 554.5 671.65 544.25 675.3 534.65 678.9 525.05 685.7 517.35 L686.4 516.5 690.35 520.45 693.85 516.95 689.9 513.0 690.75 512.3 M727.95 499.85 Q718.3 499.85 709.15 503.2 700.1 506.55 692.7 512.8 L696.6 516.7 695.75 517.45 Q693.2 519.7 690.85 522.35 L690.15 523.2 686.2 519.25 Q679.95 526.65 676.65 535.75 673.3 544.85 673.3 554.5 673.3 564.2 676.65 573.3 679.95 582.35 686.2 589.75 L690.15 585.85 690.85 586.7 695.75 591.6 696.6 592.3 692.7 596.2 Q700.1 602.45 709.15 605.8 718.25 609.15 727.95 609.15 737.6 609.15 746.7 605.8 755.75 602.45 763.15 596.2 L759.25 592.3 760.1 591.6 765.0 586.7 765.7 585.85 769.65 589.75 Q775.9 582.35 779.2 573.3 782.55 564.2 782.55 554.5 782.55 544.85 779.2 535.75 775.9 526.65 769.65 519.3 L765.7 523.2 765.0 522.35 Q762.75 519.7 760.1 517.45 L759.25 516.7 763.15 512.8 Q755.75 506.55 746.7 503.2 737.6 499.85 727.95 499.85" fill="#233e99" fill-rule="evenodd" stroke="none"/>
    <path d="M728.65 590.1 L745.5 590.1 729.8 605.8 728.65 605.8 728.65 590.1" fill="#233e99" fill-rule="evenodd" stroke="none"/>
    <path d="M779.2 552.55 L779.2 553.75 763.5 553.75 763.5 536.85 779.2 552.55" fill="#233e99" fill-rule="evenodd" stroke="none"/>
    <path d="M763.5 555.35 L779.2 555.35 779.2 556.55 763.5 572.25 763.5 555.35" fill="#233e99" fill-rule="evenodd" stroke="none"/>
    <path d="M728.65 503.25 L729.8 503.25 745.5 518.95 728.65 518.95 728.65 503.25" fill="#233e99" fill-rule="evenodd" stroke="none"/>
    <path d="M729.9 553.8 L745.65 538.0 760.3 552.6 760.3 553.8 729.9 553.8" fill="#233e99" fill-rule="evenodd" stroke="none"/>
    <path d="M760.3 556.55 L745.65 571.15 729.9 555.4 760.3 555.4 760.3 556.55" fill="#233e99" fill-rule="evenodd" stroke="none"/>
    <path d="M728.75 552.65 L728.75 522.25 729.9 522.25 744.5 536.9 728.75 552.65" fill="#233e99" fill-rule="evenodd" stroke="none"/>
    <path d="M728.7 556.55 L744.5 572.35 729.9 586.95 728.7 586.95 728.7 556.55" fill="#233e99" fill-rule="evenodd" stroke="none"/>
    <path d="M760.65 586.15 L746.75 572.25 761.7 557.3 761.7 585.1 760.65 586.15" fill="#ffc425" fill-rule="evenodd" stroke="none"/>
    <path d="M759.5 587.35 L758.45 588.4 730.65 588.4 745.6 573.45 759.5 587.35" fill="#ffc425" fill-rule="evenodd" stroke="none"/>
    <path d="M760.7 522.85 L761.7 523.9 761.7 551.7 746.75 536.75 760.7 522.85" fill="#ffc425" fill-rule="evenodd" stroke="none"/>
    <path d="M759.5 521.65 L745.65 535.55 730.7 520.6 758.5 520.6 759.5 521.65" fill="#ffc425" fill-rule="evenodd" stroke="none"/>
    <path d="M727.2 590.1 L727.2 605.8 726.05 605.8 710.35 590.1 727.2 590.1" fill="#233e99" fill-rule="evenodd" stroke="none"/>
    <path d="M676.65 552.55 L692.35 536.85 692.35 553.75 676.65 553.75 676.65 552.55" fill="#233e99" fill-rule="evenodd" stroke="none"/>
    <path d="M676.65 556.55 L676.65 555.35 692.35 555.35 692.35 572.25 676.65 556.55" fill="#233e99" fill-rule="evenodd" stroke="none"/>
    <path d="M727.2 503.25 L727.2 518.95 710.35 518.95 726.05 503.25 727.2 503.25" fill="#233e99" fill-rule="evenodd" stroke="none"/>
    <path d="M725.95 553.8 L695.55 553.8 695.55 552.6 710.2 538.0 725.95 553.8" fill="#233e99" fill-rule="evenodd" stroke="none"/>
    <path d="M695.55 556.55 L695.55 555.4 725.95 555.4 710.2 571.15 695.55 556.55" fill="#233e99" fill-rule="evenodd" stroke="none"/>
    <path d="M725.95 522.25 L727.1 522.25 727.1 552.65 711.35 536.9 725.95 522.25" fill="#233e99" fill-rule="evenodd" stroke="none"/>
    <path d="M725.95 586.95 L711.35 572.35 727.15 556.55 727.15 586.95 725.95 586.95" fill="#233e99" fill-rule="evenodd" stroke="none"/>
    <path d="M695.2 586.15 L694.15 585.1 694.15 557.3 709.1 572.25 695.2 586.15" fill="#ffc425" fill-rule="evenodd" stroke="none"/>
    <path d="M696.35 587.35 L710.25 573.45 725.2 588.4 697.4 588.4 696.35 587.35" fill="#ffc425" fill-rule="evenodd" stroke="none"/>
    <path d="M695.15 522.85 L709.1 536.75 694.15 551.7 694.15 523.9 695.15 522.85" fill="#ffc425" fill-rule="evenodd" stroke="none"/>
    <path d="M696.35 521.65 L697.35 520.6 725.15 520.6 710.25 535.55 696.35 521.65" fill="#ffc425" fill-rule="evenodd" stroke="none"/>
  </g>
</svg>
