<?xml version="1.0" encoding="UTF-8" standalone="no"?>
<svg xmlns:xlink="http://www.w3.org/1999/xlink" height="112.9px" width="242.25px" xmlns="http://www.w3.org/2000/svg">
  <g transform="matrix(1.0, 0.0, 0.0, 1.0, -796.3, -511.55)">
    <path d="M808.15 580.2 L807.8 583.5 Q805.8 582.65 803.7 582.65 802.4 582.65 801.6 583.25 800.5 583.95 800.5 585.45 800.5 586.6 801.9 587.35 L804.95 588.6 Q809.35 590.4 809.35 594.2 809.35 597.35 807.1 598.9 805.15 600.3 801.8 600.3 L796.6 599.55 797.0 595.9 Q799.35 597.15 801.55 597.15 802.9 597.15 803.95 596.55 805.15 595.8 805.15 594.55 805.15 593.3 803.75 592.45 L800.75 591.15 Q796.3 589.3 796.3 585.6 796.3 582.45 798.5 580.85 800.35 579.45 803.35 579.45 806.0 579.45 808.15 580.2" fill="#ffffff" fill-rule="evenodd" stroke="none"/>
    <path d="M827.95 579.8 L827.95 599.95 823.95 599.95 823.95 579.8 827.95 579.8" fill="#ffffff" fill-rule="evenodd" stroke="none"/>
    <path d="M847.35 584.9 L847.35 599.95 843.5 599.95 843.5 579.8 848.45 579.8 856.15 594.9 856.2 594.9 856.2 579.8 860.05 579.8 860.05 599.95 855.15 599.95 847.45 584.9 847.35 584.9" fill="#ffffff" fill-rule="evenodd" stroke="none"/>
    <path d="M885.9 579.45 Q888.85 579.45 891.8 580.3 L891.55 583.7 Q889.25 582.65 886.35 582.65 882.9 582.65 880.95 584.75 879.05 586.75 879.05 589.95 879.05 593.1 880.85 595.1 882.75 597.15 885.9 597.15 L888.55 596.85 888.55 591.6 884.25 591.6 884.25 588.4 892.4 588.4 892.4 599.3 Q888.5 600.3 885.9 600.3 880.8 600.3 877.9 597.85 874.8 595.2 874.8 590.25 874.8 585.1 877.8 582.25 880.7 579.45 885.9 579.45" fill="#ffffff" fill-rule="evenodd" stroke="none"/>
    <path d="M917.8 579.8 L925.7 599.95 921.25 599.95 919.5 595.35 911.35 595.35 909.6 599.95 905.4 599.95 913.25 579.8 917.8 579.8 M915.45 583.85 L915.4 583.85 912.5 592.15 918.4 592.15 915.45 583.85" fill="#ffffff" fill-rule="evenodd" stroke="none"/>
    <path d="M942.55 592.3 L942.55 599.95 938.5 599.95 938.5 579.8 943.6 579.8 Q952.0 579.8 952.0 585.9 952.0 589.25 949.75 590.85 947.8 592.3 944.25 592.3 L942.55 592.3 M943.95 589.15 Q947.8 589.15 947.8 586.15 947.8 583.0 943.95 583.0 L942.55 583.0 942.55 589.15 943.95 589.15" fill="#ffffff" fill-rule="evenodd" stroke="none"/>
    <path d="M966.7 582.35 Q969.35 579.45 974.05 579.45 978.7 579.45 981.35 582.35 983.9 585.2 983.9 589.85 983.9 594.55 981.4 597.35 978.75 600.3 974.05 600.3 969.3 600.3 966.7 597.4 964.15 594.6 964.15 589.85 964.15 585.1 966.7 582.35 M968.4 589.85 Q968.4 592.9 969.65 594.85 971.15 597.15 974.05 597.15 976.95 597.15 978.45 594.85 979.7 592.9 979.7 589.85 979.7 586.9 978.4 584.9 976.85 582.65 974.05 582.65 971.25 582.65 969.75 584.9 968.4 586.9 968.4 589.85" fill="#ffffff" fill-rule="evenodd" stroke="none"/>
    <path d="M1002.15 579.8 L1008.55 580.45 Q1011.65 581.55 1011.65 585.25 1011.65 587.1 1010.55 588.35 1009.4 589.7 1007.5 589.95 L1007.5 590.0 Q1008.75 590.1 1009.65 592.1 L1012.9 599.95 1008.35 599.95 1005.95 593.65 Q1005.5 592.45 1004.95 592.05 1004.4 591.6 1003.15 591.6 L1001.85 591.6 1001.85 599.95 997.8 599.95 997.8 579.8 1002.15 579.8 M1001.85 588.4 L1003.2 588.4 1006.05 587.95 Q1007.45 587.3 1007.45 585.6 1007.45 584.0 1006.1 583.4 L1003.2 583.0 1001.85 583.0 1001.85 588.4" fill="#ffffff" fill-rule="evenodd" stroke="none"/>
    <path d="M1030.65 591.15 L1030.65 596.8 1038.55 596.8 1038.55 599.95 1026.6 599.95 1026.6 579.8 1038.5 579.8 1038.5 583.0 1030.65 583.0 1030.65 587.95 1037.85 587.95 1037.85 591.15 1030.65 591.15" fill="#ffffff" fill-rule="evenodd" stroke="none"/>
    <path d="M947.15 534.75 L947.15 553.75 Q947.15 560.5 952.15 560.5 955.25 560.5 957.0 559.4 L957.3 567.8 Q953.8 568.75 949.45 568.75 943.3 568.75 939.9 565.15 936.55 561.65 936.55 555.5 L936.55 523.0 947.15 512.6 947.15 527.0 960.65 527.0 952.7 534.75 947.15 534.75" fill="#ffffff" fill-rule="evenodd" stroke="none"/>
    <path d="M963.65 547.6 Q963.65 538.25 968.35 532.4 973.45 526.05 982.6 526.05 993.25 526.05 998.0 533.0 1002.0 538.95 1002.0 550.65 L973.8 550.65 Q974.15 555.55 977.3 558.3 980.45 560.95 985.45 560.95 991.65 560.95 999.0 556.85 L999.0 565.5 Q993.1 568.75 984.95 568.75 974.85 568.75 969.25 563.2 963.65 557.6 963.65 547.6 M991.85 543.4 Q991.6 539.15 989.65 536.65 987.4 533.8 983.25 533.8 978.95 533.8 976.45 536.55 974.15 539.05 973.8 543.4 L991.85 543.4" fill="#ffffff" fill-rule="evenodd" stroke="none"/>
    <path d="M1036.85 535.75 Q1033.5 534.25 1029.65 534.25 1024.75 534.25 1021.8 537.85 1018.85 541.4 1018.85 547.2 1018.85 553.1 1021.6 556.65 1024.55 560.5 1029.9 560.5 1033.65 560.5 1038.05 558.6 L1038.5 567.4 Q1034.1 568.75 1027.9 568.75 1018.15 568.75 1012.8 562.65 1007.75 556.85 1007.75 547.2 1007.75 538.0 1012.85 532.2 1018.25 526.05 1027.5 526.05 1033.4 526.05 1037.8 527.4 L1036.85 535.75" fill="#ffffff" fill-rule="evenodd" stroke="none"/>
    <path d="M828.4 522.6 Q822.9 520.25 817.15 520.25 813.65 520.25 811.35 521.85 808.4 523.85 808.4 527.95 808.4 531.05 812.2 533.15 L820.55 536.6 Q826.15 538.95 828.85 541.8 832.65 545.75 832.65 552.0 832.65 560.6 826.5 564.95 821.05 568.75 811.9 568.75 L804.6 568.2 797.7 566.6 798.75 556.6 Q805.05 560.0 811.25 560.0 814.95 560.0 817.75 558.35 821.1 556.35 821.1 552.9 821.1 549.45 817.3 547.2 816.35 546.65 809.0 543.55 803.3 541.2 800.65 538.45 796.85 534.6 796.85 528.4 796.85 519.8 802.85 515.35 808.0 511.55 816.2 511.55 823.6 511.55 829.4 513.5 L828.4 522.6" fill="#ffffff" fill-rule="evenodd" stroke="none"/>
    <path d="M875.85 527.0 L875.85 567.8 865.8 567.8 865.8 562.25 865.6 562.25 Q860.25 568.75 852.25 568.75 845.3 568.75 841.65 564.2 838.35 560.0 838.35 552.75 L838.35 527.0 849.0 527.0 849.0 548.75 Q849.0 554.15 849.9 556.5 851.4 560.5 855.9 560.5 861.0 560.5 863.4 555.7 865.2 552.15 865.2 546.95 L865.2 527.0 875.85 527.0" fill="#ffffff" fill-rule="evenodd" stroke="none"/>
    <path d="M886.8 527.0 L896.85 527.0 896.85 532.55 897.05 532.55 Q901.6 526.05 910.4 526.05 917.4 526.05 921.0 530.6 924.3 534.75 924.3 542.05 L924.3 567.8 913.65 567.8 913.65 546.0 Q913.65 540.6 912.75 538.25 911.25 534.25 906.75 534.25 901.65 534.25 899.25 539.1 897.45 542.65 897.45 547.8 L897.45 567.8 886.8 567.8 886.8 527.0" fill="#ffffff" fill-rule="evenodd" stroke="none"/>
    <path d="M806.2 613.85 Q805.1 613.15 803.6 613.15 801.5 613.15 800.15 614.55 798.85 615.9 798.85 618.0 798.85 620.15 800.25 621.55 801.55 622.9 803.55 622.9 805.2 622.9 806.25 622.25 L806.35 624.0 803.5 624.45 Q800.55 624.45 798.75 622.7 796.95 620.9 796.95 617.95 796.95 615.1 798.8 613.3 800.65 611.55 803.55 611.55 805.1 611.55 806.35 612.1 L806.2 613.85" fill="#ffffff" fill-rule="evenodd" stroke="none"/>
    <path d="M808.25 616.25 Q809.55 614.9 811.6 614.9 813.7 614.9 815.0 616.25 816.25 617.6 816.25 619.7 816.25 621.7 814.95 623.05 813.65 624.45 811.6 624.45 809.55 624.45 808.25 623.05 806.95 621.7 806.95 619.7 806.95 617.6 808.25 616.25 M809.45 622.0 Q810.25 623.1 811.6 623.1 813.0 623.1 813.8 622.0 814.45 621.05 814.45 619.7 814.45 618.3 813.7 617.3 812.9 616.25 811.6 616.25 810.3 616.25 809.5 617.3 808.75 618.3 808.75 619.7 808.75 621.05 809.45 622.0" fill="#ffffff" fill-rule="evenodd" stroke="none"/>
    <path d="M822.25 616.25 Q819.5 616.25 819.5 620.05 L819.5 624.25 817.8 624.25 817.8 615.15 819.45 615.15 819.45 616.6 Q819.8 615.85 820.65 615.35 821.5 614.9 822.45 614.9 825.85 614.9 825.85 618.85 L825.85 624.25 824.2 624.25 824.2 619.55 Q824.2 617.9 823.75 617.15 823.3 616.3 822.25 616.25" fill="#ffffff" fill-rule="evenodd" stroke="none"/>
    <path d="M831.75 624.25 L829.75 624.25 826.5 615.15 828.35 615.15 830.8 622.55 830.85 622.55 833.35 615.15 835.05 615.15 831.75 624.25" fill="#ffffff" fill-rule="evenodd" stroke="none"/>
    <path d="M839.5 614.9 Q843.5 614.9 843.5 620.05 L837.0 620.05 Q837.0 621.35 837.9 622.25 838.75 623.1 840.0 623.1 L841.65 622.75 842.8 622.2 842.8 623.85 Q841.25 624.45 839.95 624.45 837.6 624.45 836.35 623.1 835.2 621.8 835.2 619.5 835.2 617.5 836.4 616.2 837.55 614.9 839.5 614.9 M839.45 616.25 Q838.35 616.25 837.65 617.1 837.15 617.75 837.0 618.8 L841.7 618.8 Q841.7 617.7 841.1 617.0 840.5 616.25 839.45 616.25" fill="#ffffff" fill-rule="evenodd" stroke="none"/>
    <path d="M851.05 617.15 Q850.6 616.3 849.55 616.25 846.75 616.25 846.75 620.05 L846.75 624.25 845.1 624.25 845.1 615.15 846.7 615.15 846.7 616.6 846.75 616.6 Q847.1 615.8 847.95 615.35 848.75 614.9 849.75 614.9 853.15 614.9 853.15 618.85 L853.15 624.25 851.45 624.25 851.45 619.55 Q851.45 617.9 851.05 617.15" fill="#ffffff" fill-rule="evenodd" stroke="none"/>
    <path d="M853.95 615.15 L856.0 615.15 856.0 613.0 857.65 612.5 857.65 615.15 860.1 615.15 860.1 616.5 857.65 616.5 857.65 621.45 Q857.65 622.2 858.1 622.65 858.5 623.1 859.1 623.1 859.75 623.1 860.2 622.75 L860.2 624.2 858.8 624.45 Q856.0 624.45 856.0 621.8 L856.0 616.5 853.95 616.5 853.95 615.15" fill="#ffffff" fill-rule="evenodd" stroke="none"/>
    <path d="M863.25 613.1 L861.4 613.1 861.4 611.2 863.25 611.2 863.25 613.1 M861.5 615.15 L863.15 615.15 863.15 624.25 861.5 624.25 861.5 615.15" fill="#ffffff" fill-rule="evenodd" stroke="none"/>
    <path d="M869.45 614.9 Q871.5 614.9 872.8 616.25 874.1 617.6 874.1 619.7 874.1 621.7 872.8 623.05 871.5 624.45 869.45 624.45 867.4 624.45 866.1 623.05 864.8 621.7 864.8 619.7 864.8 617.6 866.1 616.25 867.35 614.9 869.45 614.9 M867.35 617.3 Q866.6 618.3 866.6 619.7 866.6 621.05 867.3 622.0 868.05 623.1 869.45 623.1 870.8 623.1 871.6 622.0 872.3 621.05 872.3 619.7 872.3 618.3 871.55 617.3 870.75 616.25 869.45 616.25 868.15 616.25 867.35 617.3" fill="#ffffff" fill-rule="evenodd" stroke="none"/>
    <path d="M880.1 616.25 Q877.35 616.25 877.35 620.05 L877.35 624.25 875.65 624.25 875.65 615.15 877.25 615.15 877.25 616.6 877.3 616.6 Q878.1 614.9 880.3 614.9 883.7 614.9 883.7 618.85 L883.7 624.25 882.0 624.25 882.0 619.55 Q882.0 617.9 881.6 617.15 881.15 616.3 880.1 616.25" fill="#ffffff" fill-rule="evenodd" stroke="none"/>
    <path d="M895.1 611.55 Q896.45 611.55 897.25 612.25 898.2 613.0 898.2 614.4 898.2 616.45 895.45 617.65 L898.0 620.5 Q898.7 619.5 898.75 617.5 L900.45 617.5 Q900.25 619.95 899.0 621.75 L901.2 624.25 898.95 624.25 897.95 623.0 Q896.7 624.45 894.4 624.45 892.55 624.45 891.45 623.5 890.35 622.55 890.35 620.95 890.35 618.4 893.15 617.35 L892.25 616.05 Q891.85 615.3 891.85 614.5 891.85 613.05 892.8 612.3 893.7 611.55 895.1 611.55 M893.55 614.5 Q893.55 615.45 894.65 616.65 896.5 615.65 896.5 614.45 896.5 612.9 895.05 612.9 893.55 612.9 893.55 614.5 M893.0 622.5 Q893.7 623.1 894.7 623.1 895.95 623.1 897.0 621.9 L894.0 618.4 Q893.15 618.95 892.75 619.4 892.25 620.0 892.25 620.85 892.25 621.85 893.0 622.5" fill="#ffffff" fill-rule="evenodd" stroke="none"/>
    <path d="M914.2 613.35 L909.0 613.35 909.0 617.0 913.7 617.0 913.7 618.55 909.0 618.55 909.0 622.65 914.2 622.65 914.2 624.25 907.2 624.25 907.2 611.75 914.2 611.75 914.2 613.35" fill="#ffffff" fill-rule="evenodd" stroke="none"/>
    <path d="M917.55 615.15 L919.55 618.4 921.55 615.15 923.45 615.15 920.5 619.45 923.7 624.25 921.65 624.25 919.4 620.65 917.15 624.25 915.15 624.25 918.45 619.45 915.45 615.15 917.55 615.15" fill="#ffffff" fill-rule="evenodd" stroke="none"/>
    <path d="M932.75 624.25 L931.1 624.25 931.1 619.5 Q931.1 617.85 930.7 617.15 930.25 616.3 929.15 616.25 926.4 616.25 926.4 620.0 L926.4 624.25 924.7 624.25 924.7 610.85 926.4 610.85 926.4 616.45 926.45 616.45 Q927.4 614.9 929.35 614.9 932.75 614.9 932.75 618.85 L932.75 624.25" fill="#ffffff" fill-rule="evenodd" stroke="none"/>
    <path d="M936.75 613.1 L934.85 613.1 934.85 611.2 936.75 611.2 936.75 613.1 M934.95 615.15 L936.65 615.15 936.65 624.25 934.95 624.25 934.95 615.15" fill="#ffffff" fill-rule="evenodd" stroke="none"/>
    <path d="M946.55 616.3 Q947.55 617.55 947.55 619.5 947.55 621.55 946.65 622.9 945.6 624.45 943.65 624.45 941.45 624.45 940.5 622.95 L940.5 624.25 938.9 624.25 938.9 610.85 940.55 610.85 940.55 616.4 940.6 616.4 Q941.5 614.9 943.6 614.9 945.5 614.9 946.55 616.3 M941.25 617.35 Q940.55 618.3 940.55 619.7 940.55 621.0 941.2 621.95 941.95 623.1 943.25 623.1 944.5 623.1 945.2 621.9 945.8 620.9 945.75 619.65 945.8 618.3 945.2 617.35 944.5 616.25 943.25 616.25 942.0 616.25 941.25 617.35" fill="#ffffff" fill-rule="evenodd" stroke="none"/>
    <path d="M951.0 613.1 L949.15 613.1 949.15 611.2 951.0 611.2 951.0 613.1 M949.25 615.15 L950.9 615.15 950.9 624.25 949.25 624.25 949.25 615.15" fill="#ffffff" fill-rule="evenodd" stroke="none"/>
    <path d="M954.0 613.0 L955.7 612.5 955.7 615.15 958.1 615.15 958.1 616.5 955.7 616.5 955.7 621.45 Q955.7 622.2 956.1 622.65 956.5 623.1 957.1 623.1 L958.25 622.75 958.25 624.2 956.8 624.45 Q954.0 624.45 954.0 621.8 L954.0 616.5 951.95 616.5 951.95 615.15 954.0 615.15 954.0 613.0" fill="#ffffff" fill-rule="evenodd" stroke="none"/>
    <path d="M961.3 613.1 L959.4 613.1 959.4 611.2 961.3 611.2 961.3 613.1 M959.5 615.15 L961.2 615.15 961.2 624.25 959.5 624.25 959.5 615.15" fill="#ffffff" fill-rule="evenodd" stroke="none"/>
    <path d="M967.5 614.9 Q969.55 614.9 970.85 616.25 972.1 617.6 972.1 619.7 972.1 621.7 970.8 623.05 969.5 624.45 967.5 624.45 965.45 624.45 964.15 623.05 962.85 621.7 962.85 619.7 962.85 617.6 964.15 616.25 965.4 614.9 967.5 614.9 M967.5 616.25 Q966.2 616.25 965.4 617.3 964.65 618.3 964.65 619.7 964.65 621.05 965.35 622.0 966.1 623.1 967.5 623.1 968.85 623.1 969.65 622.0 970.3 621.05 970.3 619.7 970.3 618.3 969.55 617.3 968.75 616.25 967.5 616.25" fill="#ffffff" fill-rule="evenodd" stroke="none"/>
    <path d="M978.15 616.25 Q975.35 616.25 975.35 620.05 L975.35 624.25 973.7 624.25 973.7 615.15 975.3 615.15 975.3 616.6 975.35 616.6 Q975.7 615.8 976.55 615.35 977.35 614.9 978.3 614.9 981.75 614.9 981.75 618.85 L981.75 624.25 980.05 624.25 980.05 619.55 Q980.05 617.9 979.65 617.15 979.2 616.3 978.15 616.25" fill="#ffffff" fill-rule="evenodd" stroke="none"/>
    <path d="M997.1 613.85 Q996.0 613.15 994.55 613.15 992.4 613.15 991.05 614.55 989.75 615.9 989.75 618.0 989.75 620.15 991.15 621.55 992.45 622.9 994.45 622.9 996.2 622.9 997.15 622.25 L997.25 624.0 994.45 624.45 Q991.5 624.45 989.65 622.7 987.85 620.9 987.85 617.95 987.85 615.1 989.75 613.3 991.55 611.55 994.45 611.55 996.0 611.55 997.25 612.1 L997.1 613.85" fill="#ffffff" fill-rule="evenodd" stroke="none"/>
    <path d="M1002.15 616.25 Q1001.05 616.25 1000.35 617.1 999.85 617.75 999.7 618.8 L1004.45 618.8 Q1004.45 617.7 1003.85 617.0 1003.2 616.25 1002.15 616.25 M1002.2 614.9 Q1006.2 614.9 1006.2 620.05 L999.7 620.05 Q999.7 621.35 1000.6 622.25 1001.45 623.1 1002.7 623.1 1004.3 623.1 1005.5 622.2 L1005.5 623.85 1002.65 624.45 Q997.95 624.45 997.95 619.5 997.95 617.5 999.1 616.2 1000.3 614.9 1002.2 614.9" fill="#ffffff" fill-rule="evenodd" stroke="none"/>
    <path d="M1013.75 617.15 Q1013.3 616.3 1012.25 616.25 1009.5 616.25 1009.5 620.05 L1009.5 624.25 1007.8 624.25 1007.8 615.15 1009.45 615.15 1009.45 616.6 Q1009.8 615.85 1010.65 615.35 1011.5 614.9 1012.45 614.9 1015.85 614.9 1015.85 618.85 L1015.85 624.25 1014.2 624.25 1014.2 619.55 Q1014.2 617.9 1013.75 617.15" fill="#ffffff" fill-rule="evenodd" stroke="none"/>
    <path d="M1016.65 616.5 L1016.65 615.15 1018.7 615.15 1018.7 613.0 1020.35 612.5 1020.35 615.15 1022.8 615.15 1022.8 616.5 1020.35 616.5 1020.35 621.45 Q1020.35 622.2 1020.8 622.65 1021.2 623.1 1021.8 623.1 1022.5 623.1 1022.95 622.75 L1022.95 624.2 1021.5 624.45 Q1018.7 624.45 1018.7 621.8 L1018.7 616.5 1016.65 616.5" fill="#ffffff" fill-rule="evenodd" stroke="none"/>
    <path d="M1025.65 615.15 L1025.65 616.55 1025.7 616.55 Q1026.05 615.85 1026.7 615.35 1027.35 614.9 1028.05 614.9 L1029.2 615.05 1029.2 616.55 1028.25 616.4 Q1027.1 616.4 1026.45 617.4 1025.75 618.4 1025.75 620.1 L1025.75 624.25 1024.1 624.25 1024.1 615.15 1025.65 615.15" fill="#ffffff" fill-rule="evenodd" stroke="none"/>
    <path d="M1033.85 616.25 Q1032.75 616.25 1032.05 617.1 1031.55 617.75 1031.4 618.8 L1036.1 618.8 Q1036.1 617.7 1035.5 617.0 1034.9 616.25 1033.85 616.25 M1032.3 622.25 Q1033.15 623.1 1034.4 623.1 1036.0 623.1 1037.2 622.2 L1037.2 623.85 Q1035.65 624.45 1034.35 624.45 1032.0 624.45 1030.75 623.1 1029.6 621.8 1029.6 619.5 1029.6 617.5 1030.8 616.2 1031.95 614.9 1033.9 614.9 1037.9 614.9 1037.9 620.05 L1031.4 620.05 Q1031.4 621.35 1032.3 622.25" fill="#ffffff" fill-rule="evenodd" stroke="none"/>
  </g>
</svg>
